#!OML:ASF Y:\EmotionMaleHayes\Project 1\Capture day 1\Session 1\Male1.ASF
:FULLY-SPECIFIED
:DEGREES
684
root 42.767 15.5876 -9.71255 -161.537 151.953 -149.673
lowerback 11.4505 1.69052 -20.1297
upperback 4.33122 0.105344 -2.02991
thorax -1.67991 -0.0388204 9.07064
lowerneck -20.7373 -4.78045 -1.97911
upperneck 22.8905 -8.2565 8.29281
head 11.3525 -2.81658 2.05726
rclavicle 1.90833e-014 -4.13472e-014
rhumerus -65.0426 33.8907 -96.4697
rradius 37.7
rwrist -11.1948
rhand -22.0014 -29.1593
rfingers 7.12502
rthumb 4.40741 -59.0934
lclavicle 1.90833e-014 -4.13472e-014
lhumerus 5.7043 -39.405 72.0948
lradius 82.1211
lwrist 12.0543
lhand -33.9964 -31.6169
lfingers 7.12502
lthumb -7.17612 -1.7586
rfemur -28.4167 -3.21892 4.98761
rtibia 75.2504
rfoot -22.7342 18.4412
rtoes 58.4156
lfemur 24.4692 1.24242 -35.8838
ltibia -0.0151694
lfoot -18.8495 12.5549
ltoes -33.331
685
root 42.8948 15.5411 -9.51821 -161.728 151.99 -149.915
lowerback 11.4635 1.7603 -19.5557
upperback 4.39264 0.263729 -1.99374
thorax -1.67802 0.0382999 8.77529
lowerneck -20.8003 -5.14618 -1.97978
upperneck 22.8683 -8.82821 8.50113
head 11.4052 -3.044 2.03776
rclavicle 1.90833e-014 -1.90833e-014
rhumerus -65.0045 32.4273 -95.6956
rradius 37.6471
rwrist -11.8147
rhand -22.1758 -29.5732
rfingers 7.12502
rthumb 4.23896 -59.5108
lclavicle 1.90833e-014 -1.90833e-014
lhumerus 5.90097 -40.4707 71.56
lradius 84.013
lwrist 12.48
lhand -34.3103 -31.9321
lfingers 7.12502
lthumb -7.47909 -2.08432
rfemur -28.4167 -3.21892 4.98761
rtibia 75.2504
rfoot -22.7342 18.4412
rtoes 58.4156
lfemur 25.1881 0.633364 -35.9332
ltibia 0.472252
lfoot -19.203 12.6508
ltoes -32.9671
686
root 43.0216 15.501 -9.30919 -161.946 152.109 -150.235
lowerback 11.3531 1.78641 -19.1538
upperback 4.39684 0.369573 -1.67865
thorax -1.6516 0.0851881 8.89012
lowerneck -20.8872 -5.46785 -2.81021
upperneck 23.2138 -9.06506 8.576
head 11.6104 -3.19932 2.16473
rclavicle -6.36111e-014 -2.06736e-014
rhumerus -64.6629 31.1685 -94.2958
rradius 37.1389
rwrist -11.83
rhand -22.0865 -30.3953
rfingers 7.12502
rthumb 4.32526 -60.3311
lclavicle -6.36111e-014 -2.06736e-014
lhumerus 5.35969 -41.2098 71.8802
lradius 85.8524
lwrist 12.7147
lhand -34.6146 -32.2086
lfingers 7.12502
lthumb -7.7728 -2.37149
rfemur -28.4167 -3.21892 4.98761
rtibia 75.2504
rfoot -22.7342 18.4412
rtoes 58.4156
lfemur 25.8437 0.580416 -35.643
ltibia 1.09389
lfoot -18.7636 12.7705
ltoes -36.2608
687
root 43.1521 15.4654 -9.08786 -162.306 152.189 -150.573
lowerback 11.2318 1.82716 -18.6207
upperback 4.46329 0.517205 -1.4491
thorax -1.56341 0.146403 8.83093
lowerneck -20.5459 -5.81273 -2.88118
upperneck 22.8156 -9.42924 8.34846
head 11.4057 -3.42315 2.03344
rclavicle 1.90833e-014 3.97569e-014
rhumerus -63.7081 29.2351 -92.3876
rradius 36.4591
rwrist -11.9687
rhand -21.2 -31.7099
rfingers 7.12502
rthumb 5.1812 -61.6266
lclavicle 1.90833e-014 3.97569e-014
lhumerus 4.56059 -42.1512 72.1906
lradius 87.6185
lwrist 13.1856
lhand -34.6198 -32.7065
lfingers 7.12502
lthumb -7.77782 -2.86954
rfemur -28.4167 -3.21892 4.98761
rtibia 75.2504
rfoot -22.7342 18.4412
rtoes 58.4156
lfemur 26.5901 0.851723 -35.0885
ltibia 1.89015
lfoot -18.3872 12.4183
ltoes -38.5078
688
root 43.2813 15.4372 -8.861 -162.915 152.194 -151.244
lowerback 11.168 1.84469 -17.6984
upperback 4.54935 0.661933 -1.23723
thorax -1.48818 0.210583 8.53484
lowerneck -20.2376 -6.05012 -3.37815
upperneck 22.5454 -9.72567 8.88018
head 11.3248 -3.55125 2.2639
rclavicle 5.40694e-014 -4.6118e-014
rhumerus -62.8885 27.3681 -91.0117
rradius 35.7527
rwrist -12.4808
rhand -20.7827 -33.1807
rfingers 7.12502
rthumb 5.58415 -63.0871
lclavicle 5.40694e-014 -4.6118e-014
lhumerus 3.3642 -43.167 72.6838
lradius 89.2623
lwrist 13.8153
lhand -34.509 -33.3192
lfingers 7.12502
lthumb -7.67086 -3.47833
rfemur -46.0456 -19.1794 1.6196
rtibia 39.112
rfoot -13.0796 -15.0536
rtoes 10.0815
lfemur 27.4182 0.67118 -34.4083
ltibia 2.72184
lfoot -18.4605 11.9861
ltoes -36.1766
689
root 43.3994 15.4216 -8.63118 -163.698 152.17 -152.387
lowerback 11.1235 1.8548 -16.4651
upperback 4.57684 0.816965 -0.876356
thorax -1.49175 0.291181 8.22415
lowerneck -19.9299 -6.21984 -3.8142
upperneck 22.3778 -9.90564 9.21995
head 11.2609 -3.64296 2.43444
rclavicle 1.35174e-014 -2.38542e-014
rhumerus -62.2472 25.6657 -89.6634
rradius 35.3013
rwrist -13.0652
rhand -20.8951 -34.2502
rfingers 7.12502
rthumb 5.47566 -64.1594
lclavicle 1.35174e-014 -2.38542e-014
lhumerus 1.63626 -44.1134 73.7737
lradius 90.6457
lwrist 14.0877
lhand -34.5741 -33.9225
lfingers 7.12502
lthumb -7.73369 -4.08392
rfemur -45.1048 -18.7066 2.50673
rtibia 39.3414
rfoot -13.3762 -14.9335
rtoes 19.185
lfemur 28.0642 0.306142 -33.2929
ltibia 3.7451
lfoot -17.9221 11.7767
ltoes -32.8578
690
root 43.5049 15.421 -8.40115 -164.429 152.063 -153.681
lowerback 11.0494 1.80979 -15.1133
upperback 4.57339 0.913387 -0.452512
thorax -1.49377 0.345296 7.91754
lowerneck -19.6586 -6.43836 -4.26206
upperneck 22.3501 -10.1136 9.36124
head 11.2473 -3.7672 2.53034
rclavicle 1.59028e-014 -1.27222e-014
rhumerus -61.1224 23.5501 -87.7011
rradius 34.632
rwrist -13.008
rhand -21.2488 -34.7352
rfingers 7.12502
rthumb 5.13415 -64.653
lclavicle 1.59028e-014 -1.27222e-014
lhumerus -0.478664 -44.9916 75.2796
lradius 91.7271
lwrist 14.0332
lhand -34.6191 -34.5102
lfingers 7.12502
lthumb -7.77718 -4.67325
rfemur -44.62 -17.6998 3.44103
rtibia 40.2136
rfoot -14.4551 -15.0912
rtoes 23.5748
lfemur 28.2571 0.144663 -31.7212
ltibia 5.31462
lfoot -16.301 11.4685
ltoes -33.2942
691
root 43.5996 15.4371 -8.16972 -165.282 151.833 -155.359
lowerback 10.978 1.70979 -13.4121
upperback 4.5906 0.972953 0.00229674
thorax -1.46253 0.381701 7.44532
lowerneck -19.4713 -6.58073 -4.36971
upperneck 21.9927 -10.3109 9.59246
head 11.1156 -3.85577 2.59946
rclavicle 1.90833e-014 -8.90555e-014
rhumerus -59.3792 21.0175 -85.5004
rradius 33.3611
rwrist -12.4813
rhand -21.8771 -34.8241
rfingers 7.12502
rthumb 4.52745 -64.7558
lclavicle 1.90833e-014 -8.90555e-014
lhumerus -2.88938 -45.7765 77.0334
lradius 92.5048
lwrist 13.6924
lhand -34.5288 -35.0243
lfingers 7.12502
lthumb -7.68997 -5.18409
rfemur -44.9537 -17.98 5.48689
rtibia 41.8008
rfoot -14.088 -14.892
rtoes 20.1427
lfemur 28.0664 -0.0353786 -29.67
ltibia 7.43304
lfoot -14.5123 11.0055
ltoes -35.4808
692
root 43.6832 15.4678 -7.93761 -166.493 151.56 -157.748
lowerback 10.9292 1.51599 -11.3505
upperback 4.65494 0.946705 0.68222
thorax -1.37289 0.37305 7.0137
lowerneck -20.3694 -6.7554 -3.72779
upperneck 22.7495 -10.5495 8.57319
head 11.4841 -3.97797 2.06692
rclavicle -8.74653e-015 -2.22639e-014
rhumerus -57.5838 18.9128 -83.5166
rradius 32.3568
rwrist -11.832
rhand -22.549 -35.2673
rfingers 7.12502
rthumb 3.87865 -65.2117
lclavicle -8.74653e-015 -2.22639e-014
lhumerus -5.78452 -46.051 79.1806
lradius 92.9636
lwrist 12.9695
lhand -34.3838 -35.4561
lfingers 7.12502
lthumb -7.54999 -5.61084
rfemur -45.0552 -17.3457 8.03036
rtibia 43.3454
rfoot -14.204 -14.5033
rtoes 22.3046
lfemur 27.6279 -0.371223 -26.9593
ltibia 9.91794
lfoot -12.9591 10.5082
ltoes -34.9992
693
root 43.7651 15.5219 -7.71181 -166.593 151.621 -158.362
lowerback 10.6592 1.30888 -10.9184
upperback 4.64769 0.75246 0.943453
thorax -1.19675 0.267983 7.07411
lowerneck -20.6719 -6.76317 -3.67731
upperneck 22.8675 -10.5788 8.54246
head 11.5848 -3.97707 2.03537
rclavicle 1.33583e-013 -7.63333e-014
rhumerus -55.9732 17.1408 -81.8722
rradius 31.9581
rwrist -11.2698
rhand -23.5939 -36.2941
rfingers 7.12502
rthumb 2.86954 -66.2545
lclavicle 1.33583e-013 -7.63333e-014
lhumerus -9.00985 -46.0222 81.5848
lradius 93.0752
lwrist 12.1017
lhand -34.3047 -35.8707
lfingers 7.12502
lthumb -7.47368 -6.02271
rfemur -44.6816 -17.1131 8.78882
rtibia 44.2104
rfoot -14.8071 -14.2237
rtoes 24.011
lfemur 26.2976 -0.696759 -26.276
ltibia 13.143
lfoot -11.1068 10.0902
ltoes -31.9741
694
root 43.8384 15.5788 -7.47927 -166.912 151.932 -158.822
lowerback 10.6026 1.2615 -10.5855
upperback 4.70256 0.73206 0.979648
thorax -1.10475 0.253852 6.92581
lowerneck -20.621 -6.8065 -3.55032
upperneck 22.7171 -10.7521 8.84571
head 11.5461 -4.01169 2.09625
rclavicle -7.95139e-015 6.36111e-015
rhumerus -53.6781 13.8863 -79.664
rradius 30.5403
rwrist -9.30449
rhand -23.9577 -35.4659
rfingers 7.12502
rthumb 2.51819 -65.4307
lclavicle -7.95139e-015 6.36111e-015
lhumerus -12.3999 -46.187 84.0542
lradius 92.7608
lwrist 11.2224
lhand -34.4438 -36.2613
lfingers 7.12502
lthumb -7.60793 -6.41817
rfemur -43.4259 -16.6247 9.24385
rtibia 43.9171
rfoot -15.5243 -15.0448
rtoes 21.6855
lfemur 25.018 -0.965673 -25.8648
ltibia 16.7514
lfoot -8.86667 9.90862
ltoes -27.6459
695
root 43.8989 15.6371 -7.2449 -167.368 152.648 -159.069
lowerback 10.7656 1.30053 -10.6832
upperback 4.77118 0.756826 0.879914
thorax -1.12473 0.264367 6.87103
lowerneck -20.6312 -6.73387 -3.23186
upperneck 22.8233 -10.8419 9.12076
head 11.5986 -3.98332 2.13059
rclavicle -5.40694e-014 1.27222e-014
rhumerus -51.9088 11.0671 -78.1615
rradius 29.9689
rwrist -7.56159
rhand -21.5234 -32.7687
rfingers 7.12502
rthumb 4.86902 -62.6928
lclavicle -5.40694e-014 1.27222e-014
lhumerus -16.0827 -45.9546 86.5351
lradius 92.0355
lwrist 10.2861
lhand -34.6488 -36.4547
lfingers 7.12502
lthumb -7.80585 -6.61883
rfemur -41.8335 -15.7575 9.45117
rtibia 43.0139
rfoot -15.037 -14.6625
rtoes 21.4811
lfemur 23.7522 -1.00584 -25.7898
ltibia 20.5706
lfoot -6.49864 10.0192
ltoes -20.3373
696
root 43.9421 15.697 -7.01127 -168.194 153.013 -160.361
lowerback 10.9739 1.13922 -10.0307
upperback 4.73514 0.585652 1.1259
thorax -1.24854 0.191469 6.78311
lowerneck -20.6071 -6.57442 -2.89033
upperneck 23.0741 -10.7738 9.18161
head 11.6707 -3.90522 2.11199
rclavicle -2.62396e-014 -3.02153e-014
rhumerus -50.4397 9.04849 -77.2656
rradius 29.8677
rwrist -6.37037
rhand -22.4381 -32.2461
rfingers 7.12502
rthumb 3.98569 -62.1886
lclavicle -2.62396e-014 -3.02153e-014
lhumerus -19.8453 -45.106 88.9756
lradius 90.8901
lwrist 9.44106
lhand -34.704 -36.3045
lfingers 7.12502
lthumb -7.85908 -6.47056
rfemur -40.1921 -14.7218 10.8724
rtibia 42.0853
rfoot -15.0346 -14.3551
rtoes 21.5925
lfemur 22.1793 -1.12517 -24.3696
ltibia 24.4196
lfoot -3.62613 10.3888
ltoes -13.2712
697
root 43.9985 15.7576 -6.77747 -168.902 153.738 -160.898
lowerback 11.2464 1.15953 -10.0163
upperback 4.78562 0.587754 1.19557
thorax -1.34462 0.194888 6.84926
lowerneck -20.5338 -6.52967 -2.85273
upperneck 23.2411 -10.8087 9.41256
head 11.739 -3.88324 2.18834
rclavicle 2.46493e-014 5.56597e-014
rhumerus -48.9839 7.1319 -76.5637
rradius 30.0359
rwrist -6.00344
rhand -22.6528 -32.1558
rfingers 7.12502
rthumb 3.77841 -62.1021
lclavicle 2.46493e-014 5.56597e-014
lhumerus -23.1899 -44.1177 91.3807
lradius 89.2285
lwrist 8.82189
lhand -34.6351 -35.7678
lfingers 7.12502
lthumb -7.7926 -5.93142
rfemur -38.4011 -13.9729 11.414
rtibia 41.1752
rfoot -15.0178 -14.0182
rtoes 20.6294
lfemur 20.8178 -1.16206 -24.0818
ltibia 28.1318
lfoot -0.646088 11.1017
ltoes -10.2146
